<?xml version="1.0" encoding="UTF-8"?>
<svg id="Layer_2" data-name="Layer 2" xmlns="http://www.w3.org/2000/svg" viewBox="0 0 311.67 278.87">
  <defs>
    <style>
      .cls-1 {
        fill: #2e3a59;
        fill-rule: evenodd;
        stroke-width: 0px;
      }
    </style>
  </defs>
  <g id="katman_1" data-name="katman 1">
    <g>
      <path class="cls-1" d="M75.7,111.1h29.03l-14.52-49.75-14.52,49.75ZM109.91,131.43h-39.37l-5.91,20.31h-27.72l37.84-114.83h30.76l38.02,114.83h-27.72l-5.91-20.31ZM217.56,123.16c-6.15-8.67-10.7-18.37-13.45-28.64h26.9c-2.75,10.27-7.3,19.97-13.45,28.64ZM263.73,94.52v-19.36h-37.63v-12.96h-19.23v12.96h-37.63v19.36h14.09c3.12,15.58,10.24,30.71,20.8,44.65-8.88,8.79-18.82,16.46-29.58,22.82l10.33,17.55c11.86-7.03,22.83-15.46,32.68-25.1,9.84,9.64,20.8,18.07,32.64,25.1l10.37-17.55c-10.77-6.36-20.7-14.02-29.59-22.82,10.56-13.94,17.68-29.08,20.8-44.65h11.94Z"/>
      <path class="cls-1" d="M288.33,198.37h-156.25l-64.3,39.7v-39.7H22.8V23.8h265.55v174.57h-.02ZM301.55,0H10.12C4.54,0,0,4.59,0,10.2v199.52c0,5.61,4.56,10.2,10.12,10.2h37.42v58.94l85.1-58.94h168.91c5.58,0,10.12-4.59,10.12-10.2V10.2c0-5.61-4.51-10.17-10.12-10.2Z"/>
    </g>
  </g>
</svg>